<svg width="25" height="25" viewBox="0 0 25 25" fill="none" xmlns="http://www.w3.org/2000/svg">
<g clip-path="url(#clip0_176_3414)">
<path d="M12.98 3.07999C16.184 3.07999 16.564 3.09199 17.83 3.14999C21.082 3.29799 22.601 4.84099 22.749 8.06899C22.807 9.33399 22.818 9.71399 22.818 12.918C22.818 16.123 22.806 16.502 22.749 17.767C22.6 20.992 21.085 22.538 17.83 22.686C16.564 22.744 16.186 22.756 12.98 22.756C9.77604 22.756 9.39604 22.744 8.13104 22.686C4.87104 22.537 3.36004 20.987 3.21204 17.766C3.15404 16.501 3.14204 16.122 3.14204 12.917C3.14204 9.71299 3.15504 9.33399 3.21204 8.06799C3.36104 4.84099 4.87604 3.29699 8.13104 3.14899C9.39704 3.09199 9.77604 3.07999 12.98 3.07999ZM12.98 0.916992C9.72104 0.916992 9.31304 0.930992 8.03304 0.988992C3.67504 1.18899 1.25304 3.60699 1.05304 7.96899C0.994042 9.24999 0.980042 9.65799 0.980042 12.917C0.980042 16.176 0.994042 16.585 1.05204 17.865C1.25204 22.223 3.67004 24.645 8.03204 24.845C9.31304 24.903 9.72104 24.917 12.98 24.917C16.239 24.917 16.648 24.903 17.928 24.845C22.282 24.645 24.71 22.227 24.907 17.865C24.966 16.585 24.98 16.176 24.98 12.917C24.98 9.65799 24.966 9.24999 24.908 7.96999C24.712 3.61599 22.291 1.18999 17.929 0.989992C16.648 0.930992 16.239 0.916992 12.98 0.916992ZM12.98 6.75499C9.57704 6.75499 6.81804 9.51399 6.81804 12.917C6.81804 16.32 9.57704 19.08 12.98 19.08C16.383 19.08 19.142 16.321 19.142 12.917C19.142 9.51399 16.383 6.75499 12.98 6.75499ZM12.98 16.917C10.771 16.917 8.98004 15.127 8.98004 12.917C8.98004 10.708 10.771 8.91699 12.98 8.91699C15.189 8.91699 16.98 10.708 16.98 12.917C16.98 15.127 15.189 16.917 12.98 16.917ZM19.386 5.07199C18.59 5.07199 17.945 5.71699 17.945 6.51199C17.945 7.30699 18.59 7.95199 19.386 7.95199C20.181 7.95199 20.825 7.30699 20.825 6.51199C20.825 5.71699 20.181 5.07199 19.386 5.07199Z" fill="#1E1E1E"/>
</g>
<defs>
<clipPath id="clip0_176_3414">
<rect width="24" height="24" fill="white" transform="translate(0.980042 0.916992)"/>
</clipPath>
</defs>
</svg>
