<svg width="90" height="15" viewBox="0 0 90 15" fill="none" xmlns="http://www.w3.org/2000/svg">
<path d="M6.26172 15L2.34172 3.3H2.26172C2.27505 3.56667 2.29505 3.94667 2.32172 4.44C2.34839 4.92 2.36839 5.44667 2.38172 6.02C2.40839 6.58 2.42172 7.10667 2.42172 7.6V15H0.121719V0.719999H3.68172L7.44172 11.94H7.52172L11.4417 0.719999H15.0017V15H12.5617V7.48C12.5617 7.02667 12.5684 6.53333 12.5817 6C12.6084 5.45333 12.6284 4.94 12.6417 4.46C12.6684 3.96667 12.6884 3.58667 12.7017 3.32H12.6217L8.54172 15H6.26172ZM26.3159 15H18.1959V0.719999H26.3159V2.86H20.7559V6.5H25.9559V8.64H20.7559V12.84H26.3159V15ZM40.5283 7.72C40.5283 9.32 40.2216 10.66 39.6083 11.74C39.0083 12.82 38.1349 13.6333 36.9883 14.18C35.8549 14.7267 34.4816 15 32.8683 15H28.8483V0.719999H33.2883C34.7683 0.719999 36.0483 0.986666 37.1283 1.52C38.2083 2.05333 39.0416 2.84 39.6283 3.88C40.2283 4.90667 40.5283 6.18667 40.5283 7.72ZM37.8483 7.8C37.8483 6.66667 37.6749 5.73333 37.3283 5C36.9816 4.26667 36.4683 3.72667 35.7883 3.38C35.1083 3.02 34.2749 2.84 33.2883 2.84H31.4083V12.86H32.9483C34.6016 12.86 35.8283 12.44 36.6283 11.6C37.4416 10.7467 37.8483 9.48 37.8483 7.8ZM47.9148 15H41.9148V13.54L43.6348 12.9V2.84L41.9148 2.18V0.719999H47.9148V2.18L46.1948 2.84V12.9L47.9148 13.54V15ZM55.0972 15H52.5372V2.88H48.4372V0.719999H59.1972V2.88H55.0972V15ZM64.9434 0.719999C66.1968 0.719999 67.2301 0.873332 68.0434 1.18C68.8568 1.48667 69.4634 1.95333 69.8634 2.58C70.2634 3.19333 70.4634 3.97333 70.4634 4.92C70.4634 5.61333 70.3301 6.20667 70.0634 6.7C69.8101 7.19333 69.4768 7.60667 69.0634 7.94C68.6501 8.26 68.2034 8.52 67.7234 8.72L71.8234 15H68.9434L65.5234 9.36H63.4434V15H60.8834V0.719999H64.9434ZM64.7834 2.86H63.4434V7.26H64.8634C65.5701 7.26 66.1434 7.17333 66.5834 7C67.0234 6.82667 67.3434 6.57333 67.5434 6.24C67.7568 5.90667 67.8634 5.49333 67.8634 5C67.8634 4.48 67.7501 4.06667 67.5234 3.76C67.2968 3.44 66.9568 3.21333 66.5034 3.08C66.0634 2.93333 65.4901 2.86 64.7834 2.86ZM78.1531 15H72.1531V13.54L73.8731 12.9V2.84L72.1531 2.18V0.719999H78.1531V2.18L76.4331 2.84V12.9L78.1531 13.54V15ZM84.4755 0.719999C86.3288 0.719999 87.6755 1.10667 88.5155 1.88C89.3688 2.65333 89.7955 3.72 89.7955 5.08C89.7955 5.69333 89.7021 6.28 89.5155 6.84C89.3288 7.38667 89.0155 7.88 88.5755 8.32C88.1355 8.76 87.5555 9.10667 86.8355 9.36C86.1288 9.61333 85.2488 9.74 84.1955 9.74H82.7755V15H80.2155V0.719999H84.4755ZM84.3155 2.84H82.7755V7.62H83.9355C84.6288 7.62 85.2155 7.54 85.6955 7.38C86.1888 7.20667 86.5621 6.94 86.8155 6.58C87.0688 6.22 87.1955 5.75333 87.1955 5.18C87.1955 4.39333 86.9621 3.80667 86.4955 3.42C86.0288 3.03333 85.3021 2.84 84.3155 2.84Z" fill="#271F1D"/>
</svg>
