<svg width="25" height="24" viewBox="0 0 25 24" fill="none" xmlns="http://www.w3.org/2000/svg">
<path d="M15.5 21V13C15.5 12.7348 15.3946 12.4804 15.2071 12.2929C15.0196 12.1054 14.7652 12 14.5 12H10.5C10.2348 12 9.98043 12.1054 9.79289 12.2929C9.60536 12.4804 9.5 12.7348 9.5 13V21" stroke="#FF8E66" stroke-width="2" stroke-linecap="round" stroke-linejoin="round"/>
<path d="M3.5 10C3.49993 9.70907 3.56333 9.42162 3.68579 9.15771C3.80824 8.89381 3.9868 8.65979 4.209 8.472L11.209 2.473C11.57 2.16791 12.0274 2.00052 12.5 2.00052C12.9726 2.00052 13.43 2.16791 13.791 2.473L20.791 8.472C21.0132 8.65979 21.1918 8.89381 21.3142 9.15771C21.4367 9.42162 21.5001 9.70907 21.5 10V19C21.5 19.5304 21.2893 20.0391 20.9142 20.4142C20.5391 20.7893 20.0304 21 19.5 21H5.5C4.96957 21 4.46086 20.7893 4.08579 20.4142C3.71071 20.0391 3.5 19.5304 3.5 19V10Z" stroke="#FF8E66" stroke-width="2" stroke-linecap="round" stroke-linejoin="round"/>
</svg>
