<svg width="28" height="28" viewBox="0 0 28 28" fill="none" xmlns="http://www.w3.org/2000/svg">
<path d="M13.9999 7.00016V2.3335H9.33325" stroke="#FFFCFB" stroke-width="2" stroke-linecap="round" stroke-linejoin="round"/>
<path d="M17.5 12.8335V15.1668" stroke="#FFFCFB" stroke-width="2" stroke-linecap="round" stroke-linejoin="round"/>
<path d="M2.33325 14H4.66659" stroke="#FFFCFB" stroke-width="2" stroke-linecap="round" stroke-linejoin="round"/>
<path d="M23.3333 14H25.6666" stroke="#FFFCFB" stroke-width="2" stroke-linecap="round" stroke-linejoin="round"/>
<path d="M23.3334 18.6667C23.3334 19.2855 23.0876 19.879 22.65 20.3166C22.2124 20.7542 21.6189 21 21.0001 21H10.2994C9.68063 21.0001 9.08723 21.2461 8.64975 21.6837L6.08075 24.2527C5.9649 24.3685 5.81732 24.4474 5.65665 24.4793C5.49598 24.5113 5.32945 24.4949 5.17811 24.4322C5.02676 24.3695 4.8974 24.2633 4.80638 24.1271C4.71536 23.9909 4.66677 23.8308 4.66675 23.667V9.33333C4.66675 8.71449 4.91258 8.121 5.35017 7.68342C5.78775 7.24583 6.38124 7 7.00008 7H21.0001C21.6189 7 22.2124 7.24583 22.65 7.68342C23.0876 8.121 23.3334 8.71449 23.3334 9.33333V18.6667Z" stroke="#FFFCFB" stroke-width="2" stroke-linecap="round" stroke-linejoin="round"/>
<path d="M10.5 12.8335V15.1668" stroke="#FFFCFB" stroke-width="2" stroke-linecap="round" stroke-linejoin="round"/>
</svg>
