<svg xmlns="http://www.w3.org/2000/svg" width="24" height="24" viewBox="0 0 24 24" fill="none" stroke="currentColor" stroke-width="2" stroke-linecap="round" stroke-linejoin="round">
<path d="M11 2V4"/>
<path d="M5 2V4"/>
<path d="M5 3H4C3.46957 3 2.96086 3.21071 2.58579 3.58579C2.21071 3.96086 2 4.46957 2 5V9C2 10.5913 2.63214 12.1174 3.75736 13.2426C4.88258 14.3679 6.4087 15 8 15C9.5913 15 11.1174 14.3679 12.2426 13.2426C13.3679 12.1174 14 10.5913 14 9V5C14 4.46957 13.7893 3.96086 13.4142 3.58579C13.0391 3.21071 12.5304 3 12 3H11"/>
<path d="M8 15C8 16.5913 8.63214 18.1174 9.75736 19.2426C10.8826 20.3679 12.4087 21 14 21C15.5913 21 17.1174 20.3679 18.2426 19.2426C19.3679 18.1174 20 16.5913 20 15V12"/>
<path d="M20 12C21.1046 12 22 11.1046 22 10C22 8.89543 21.1046 8 20 8C18.8954 8 18 8.89543 18 10C18 11.1046 18.8954 12 20 12Z"/>
</svg>
